<svg width="22" height="22" viewBox="0 0 22 22" fill="none" xmlns="http://www.w3.org/2000/svg">
  <path fill-rule="evenodd" clip-rule="evenodd" d="M12.7927 12.2634C11.3608 13.6953 9.0392 13.6953 7.60728 12.2634C6.17535 10.8315 6.17535 8.50987 7.60728 7.07795C9.0392 5.64603 11.3608 5.64603 12.7927 7.07795C14.2246 8.50987 14.2246 10.8315 12.7927 12.2634ZM13.2331 13.6464C11.2729 15.1458 8.45729 14.999 6.66447 13.2062C4.71184 11.2536 4.71184 8.08776 6.66447 6.13514C8.61709 4.18252 11.7829 4.18252 13.7355 6.13514C15.5283 7.92789 15.6751 10.7433 14.1759 12.7035L17.7426 16.2702L16.7998 17.213L13.2331 13.6464Z" fill="white"/>
</svg>
